<?xml version="1.0" encoding="utf-8"?>
<!-- Generator: Adobe Illustrator 21.1.0, SVG Export Plug-In . SVG Version: 6.00 Build 0)  -->
<svg version="1.1" id="message" xmlns="http://www.w3.org/2000/svg" xmlns:xlink="http://www.w3.org/1999/xlink" x="0px" y="0px" viewBox="0 0 28 25.4" style="enable-background:new 0 0 28 25.4;" xml:space="preserve">

	<g>
		<path style='fill:white;' d="M17,12.1l10.8-7.5c-0.4-2.4-1.9-4.1-3.7-4.1H3.7C1.9,0.4,0.4,2.2,0,4.5l10.8,7.5C12.4,13.2,15.4,13.2,17,12.1z"/>
		<path  style='fill:white;' d="M17.6,13.7c-1,0.7-2.3,1.1-3.7,1.1s-2.7-0.4-3.7-1.1l-3-2.1l-7.3,5.1V20c0,2.9,1.7,5.3,3.8,5.3h20.4
			c2.1,0,3.8-2.4,3.8-5.3v-3.3l-7.3-5.1L17.6,13.7z"/>
		<polygon style='fill:white;' points="22,10.6 27.9,14.7 27.9,6.4 		"/>
		<polygon style='fill:white;' points="-0.1,6.4 -0.1,14.7 5.8,10.6 		"/>
	</g>

</svg>
